<?xml version="1.0"?>
<svg xmlns="http://www.w3.org/2000/svg" viewBox="0 0 50 50">
    <path d="M 39.048828 2 C 38.449828 2.135 37.886172 2.2575312 37.326172 2.3945312 C 37.262172 2.4105313 37.170922 2.5035 37.169922 2.5625 C 37.157922 3.1495 37.162109 3.7341875 37.162109 4.3671875 C 37.787109 4.2361875 38.360641 4.1201406 38.931641 3.9941406 C 38.977641 3.9841406 39.043922 3.9150469 39.044922 3.8730469 C 39.051922 3.2530469 39.048828 2.634 39.048828 2 z M 36.691406 2.5332031 C 36.268406 2.6182031 35.861078 2.6992031 35.455078 2.7832031 C 34.809078 2.9182031 34.810547 2.9199375 34.810547 3.5859375 L 34.810547 4.8144531 C 35.466547 4.6914531 36.076406 4.5778906 36.691406 4.4628906 L 36.691406 2.5332031 z M 34.357422 3.0078125 C 33.737422 3.1158125 33.151406 3.2161719 32.566406 3.3261719 C 32.527406 3.3331719 32.476562 3.4168437 32.476562 3.4648438 C 32.470562 4.0328437 32.472656 4.6001719 32.472656 5.2011719 C 33.072656 5.1041719 33.627734 5.020875 34.177734 4.921875 C 34.244734 4.909875 34.348609 4.8244844 34.349609 4.7714844 C 34.362609 4.1944844 34.357422 3.6168125 34.357422 3.0078125 z M 29.623047 3.7851562 C 28.985047 3.8691563 28.365906 3.95025 27.753906 4.03125 L 27.753906 5.8300781 C 28.390906 5.7540781 29.006047 5.6804219 29.623047 5.6074219 L 29.623047 3.7851562 z M 41.367188 3.8964844 C 40.784188 4.0274844 40.212578 4.1531094 39.642578 4.2871094 C 39.596578 4.2981094 39.530297 4.3632969 39.529297 4.4042969 C 39.522297 4.9532969 39.523438 5.5003594 39.523438 6.0683594 L 39.525391 6.0683594 L 39.525391 6.0703125 C 40.160391 5.9373125 40.758187 5.8115937 41.367188 5.6835938 C 41.366188 5.0935938 41.367187 4.5164844 41.367188 3.8964844 z M 27.273438 4.0878906 C 26.610437 4.1588906 25.987234 4.2259687 25.365234 4.2929688 L 25.365234 6.0683594 C 25.972234 6.0103594 26.562344 5.9575312 27.152344 5.8945312 C 27.196344 5.8895313 27.269531 5.8202969 27.269531 5.7792969 C 27.277531 5.2232969 27.273437 4.6668906 27.273438 4.0878906 z M 24.869141 4.3378906 C 24.222141 4.3928906 23.607234 4.4450469 22.990234 4.4980469 L 22.990234 6.2558594 C 23.624234 6.2078594 24.240141 6.1612812 24.869141 6.1132812 L 24.869141 4.3378906 z M 22.490234 4.5351562 C 21.858234 4.5701563 21.244422 4.605625 20.607422 4.640625 L 20.607422 6.3964844 C 21.252422 6.3594844 21.872234 6.3231094 22.490234 6.2871094 L 22.490234 4.5351562 z M 13.441406 4.7636719 L 13.441406 6.4804688 L 15.320312 6.4804688 L 15.320312 4.7636719 L 13.441406 4.7636719 z M 15.84375 4.7695312 L 15.84375 6.4824219 L 17.71875 6.4824219 L 17.71875 4.7695312 L 15.84375 4.7695312 z M 36.691406 4.8964844 C 36.109406 5.0024844 35.539656 5.1038438 34.972656 5.2148438 C 34.912656 5.2258438 34.819359 5.3006562 34.818359 5.3476562 C 34.807359 5.8596562 34.810547 6.3700625 34.810547 6.9140625 C 35.461547 6.8050625 36.072406 6.7036094 36.691406 6.5996094 L 36.691406 4.8964844 z M 34.347656 5.3496094 C 32.140656 5.6566094 29.943516 5.9615313 27.728516 6.2695312 L 27.728516 10.251953 C 26.342516 10.313953 24.973891 10.3755 23.587891 10.4375 L 23.587891 8.8496094 C 24.182891 8.8156094 24.764844 8.782 25.339844 8.75 L 25.339844 6.5078125 C 22.952844 6.6388125 20.591125 6.7693906 18.203125 6.9003906 L 18.203125 10.726562 L 13.445312 10.726562 L 13.445312 12.6875 L 15.294922 12.6875 L 15.294922 14.201172 L 13.449219 14.201172 L 13.449219 16.132812 L 15.830078 16.132812 L 15.830078 22.330078 L 17.648438 22.330078 L 17.648438 23.830078 L 15.835938 23.830078 L 15.835938 26.1875 L 17.65625 26.1875 L 17.65625 27.689453 L 15.8125 27.689453 L 15.8125 33.876953 L 13.449219 33.876953 L 13.449219 37.775391 L 15.285156 37.775391 L 15.285156 39.273438 L 18.224609 39.273438 L 18.224609 43.117188 C 19.837609 43.188187 21.414203 43.259078 23.033203 43.330078 L 23.033203 41.849609 C 23.665203 41.904609 24.257859 41.955766 24.880859 42.009766 L 24.880859 39.548828 C 25.848859 39.622828 26.782187 39.692625 27.742188 39.765625 L 27.742188 43.728516 C 29.960187 44.036516 32.151234 44.340438 34.365234 44.648438 L 34.365234 40.494141 C 34.761234 40.522141 35.112844 40.547266 35.464844 40.572266 C 36.679844 40.657266 37.884219 40.641266 39.074219 40.322266 C 41.268219 39.735266 42.761328 38.431312 43.361328 36.195312 C 43.731328 34.816312 43.782625 33.413047 43.640625 31.998047 C 43.523625 30.834047 43.215 29.729078 42.625 28.705078 C 42.441 28.386078 42.249609 28.198328 41.849609 28.236328 C 41.519609 28.267328 41.181656 28.214219 40.847656 28.199219 C 40.417656 28.179219 39.985063 28.161625 39.539062 28.140625 C 39.539062 27.495625 39.530875 26.879625 39.546875 26.265625 C 39.551875 26.074625 39.485406 25.983594 39.316406 25.933594 C 38.572406 25.713594 37.832031 25.475391 37.082031 25.275391 C 36.650031 25.160391 36.200047 25.107391 35.748047 25.025391 L 35.748047 24.410156 C 35.748047 23.698156 35.750641 23.701844 36.431641 23.464844 C 37.613641 23.054844 38.782156 22.620891 39.785156 21.837891 C 40.906156 20.961891 41.7125 19.856531 42.1875 18.519531 C 42.6175 17.311531 42.655453 16.054016 42.564453 14.791016 C 42.494453 13.821016 42.273406 12.883578 41.816406 12.017578 C 41.458406 11.339578 40.944063 10.792531 40.289062 10.394531 C 38.900062 9.5515313 37.370391 9.3231094 35.775391 9.4121094 C 35.309391 9.4381094 34.842141 9.4690469 34.369141 9.4980469 C 34.360141 9.3400469 34.353703 9.2112187 34.345703 9.0742188 C 33.722703 9.1522187 33.127437 9.2277344 32.523438 9.3027344 L 32.523438 7.6972656 C 33.137437 7.6062656 33.741656 7.5177344 34.347656 7.4277344 L 34.347656 5.3496094 z M 41.369141 6.1386719 C 40.749141 6.2656719 40.141109 6.3896719 39.537109 6.5136719 L 39.537109 8.2675781 C 40.163109 8.1505781 40.771141 8.0377812 41.369141 7.9257812 L 41.369141 6.1386719 z M 39.042969 6.6074219 C 38.399969 6.7264219 37.784547 6.8401719 37.185547 6.9511719 L 37.185547 8.6621094 C 37.820547 8.5561094 38.429969 8.4555156 39.042969 8.3535156 L 39.042969 6.6074219 z M 15.832031 6.9082031 L 15.832031 8.3984375 L 17.712891 8.3984375 L 17.712891 6.9082031 L 15.832031 6.9082031 z M 36.685547 7.0351562 C 36.051547 7.1381562 35.439312 7.2388437 34.820312 7.3398438 L 34.820312 9.015625 C 35.463313 8.920625 36.076547 8.8302344 36.685547 8.7402344 L 36.685547 8.7382812 L 36.685547 7.0351562 z M 13.441406 8.8222656 L 13.441406 10.341797 L 15.324219 10.341797 L 15.324219 8.8222656 L 13.441406 8.8222656 z M 15.84375 8.8261719 L 15.84375 10.335938 L 17.724609 10.335938 L 17.724609 8.8261719 L 15.84375 8.8261719 z M 6.3007812 10.451172 L 6.3007812 12.013672 C 6.9337813 12.047672 7.5517344 12.079281 8.1777344 12.113281 L 8.1777344 10.554688 C 7.5457344 10.519687 6.9287813 10.486172 6.3007812 10.451172 z M 8.6757812 10.628906 L 8.6757812 12.160156 L 10.535156 12.160156 L 10.535156 10.628906 L 8.6757812 10.628906 z M 11.056641 10.714844 L 11.056641 12.234375 L 12.9375 12.234375 L 12.9375 10.714844 L 11.056641 10.714844 z M 22.494141 12.429688 L 22.494141 13.966797 C 21.871141 13.994797 21.261812 14.022781 20.632812 14.050781 L 20.632812 12.519531 C 21.261813 12.488531 21.870141 12.459687 22.494141 12.429688 z M 41.367188 12.558594 L 41.367188 14.365234 C 40.774188 14.438234 40.178547 14.511891 39.560547 14.587891 L 39.560547 12.822266 C 40.145547 12.736266 40.739187 12.650594 41.367188 12.558594 z M 8.671875 12.574219 L 8.671875 14.095703 L 10.539062 14.095703 L 10.539062 12.574219 L 8.671875 12.574219 z M 18.263672 12.589844 L 20.097656 12.589844 L 20.097656 14.082031 L 18.263672 14.082031 L 18.263672 12.589844 z M 6.2871094 14.429688 C 6.2871094 14.881687 6.2829687 15.357984 6.2929688 15.833984 C 6.2939687 15.875984 6.3845938 15.950172 6.4335938 15.951172 C 7.0085938 15.959172 7.5828281 15.957031 8.1738281 15.957031 L 8.1738281 14.429688 L 6.2871094 14.429688 z M 11.054688 14.580078 L 11.054688 16.097656 L 12.9375 16.097656 L 12.9375 14.580078 L 11.054688 14.580078 z M 29.882812 14.951172 C 33.787813 14.852172 33.682938 16.530953 33.710938 17.751953 C 33.761938 19.992953 32.826859 22.008094 28.130859 22.371094 C 27.971859 22.383094 24.168281 22.542969 24.113281 22.542969 C 24.114281 20.096969 24.113281 17.672563 24.113281 15.226562 C 24.271281 15.216563 29.279813 14.967172 29.882812 14.951172 z M 6.3007812 16.386719 L 6.3007812 17.935547 L 8.1757812 17.935547 L 8.1757812 16.386719 L 6.3007812 16.386719 z M 11.060547 16.507812 L 11.060547 18.029297 L 12.931641 18.029297 L 12.931641 16.507812 L 11.060547 16.507812 z M 13.443359 16.529297 L 13.443359 18.044922 L 15.326172 18.044922 L 15.326172 16.529297 L 13.443359 16.529297 z M 17.25 16.544922 L 19.103516 16.544922 L 19.103516 18.029297 L 17.25 18.029297 L 17.25 16.544922 z M 41.359375 17.169922 L 41.359375 18.980469 C 40.767375 19.019469 40.168734 19.060562 39.552734 19.101562 L 39.552734 17.339844 C 40.154734 17.283844 40.746375 17.226922 41.359375 17.169922 z M 8.6835938 18.394531 L 8.6835938 19.931641 L 10.535156 19.931641 L 10.535156 18.394531 L 8.6835938 18.394531 z M 13.445312 18.460938 L 13.445312 19.970703 L 15.320312 19.970703 L 15.320312 18.460938 L 13.445312 18.460938 z M 19.919922 18.474609 L 21.763672 18.474609 L 21.763672 19.947266 L 19.919922 19.947266 L 19.919922 18.474609 z M 6.3046875 20.300781 L 6.3046875 21.849609 L 8.1816406 21.849609 L 8.1816406 20.300781 L 6.3046875 20.300781 z M 8.6757812 20.347656 L 8.6757812 21.869141 L 10.544922 21.869141 L 10.544922 20.347656 L 8.6757812 20.347656 z M 11.050781 20.373047 L 11.050781 21.888672 L 12.931641 21.888672 L 12.931641 20.373047 L 11.050781 20.373047 z M 11.052734 22.302734 L 11.052734 23.824219 L 12.9375 23.824219 L 12.9375 22.302734 L 11.052734 22.302734 z M 13.451172 22.316406 L 13.451172 23.824219 L 15.326172 23.824219 L 15.326172 22.316406 L 13.451172 22.316406 z M 13.445312 24.242188 L 13.445312 25.75 L 15.328125 25.75 L 15.328125 24.242188 L 13.445312 24.242188 z M 8.6816406 24.244141 L 8.6816406 25.771484 L 10.542969 25.771484 L 10.542969 24.244141 L 8.6816406 24.244141 z M 19.691406 24.248047 L 21.53125 24.248047 L 21.53125 25.746094 L 19.691406 25.746094 L 19.691406 24.248047 z M 13.451172 26.175781 L 13.451172 27.683594 L 15.333984 27.683594 L 15.333984 26.175781 L 13.451172 26.175781 z M 11.048828 26.181641 L 11.048828 27.697266 L 12.933594 27.697266 L 12.933594 26.181641 L 11.048828 26.181641 z M 24.111328 27.519531 C 24.228328 27.519531 27.574859 27.589141 28.130859 27.619141 C 34.005859 27.931141 34.147141 29.063875 34.744141 31.171875 C 34.915141 31.776875 34.799719 32.41925 34.636719 33.03125 C 34.523719 33.45825 34.204547 35.058687 30.435547 35.054688 C 29.512547 35.053688 24.246328 34.837891 24.111328 34.837891 L 24.111328 27.519531 z M 11.048828 28.115234 L 11.048828 29.615234 L 12.941406 29.615234 L 12.941406 28.115234 L 11.048828 28.115234 z M 8.6777344 28.136719 L 8.6777344 29.648438 L 10.548828 29.648438 L 10.548828 28.136719 L 8.6777344 28.136719 z M 6.3066406 28.162109 L 6.3066406 29.679688 L 8.1855469 29.679688 L 8.1855469 28.162109 L 6.3066406 28.162109 z M 13.441406 30.027344 L 13.441406 31.537109 L 15.326172 31.537109 L 15.326172 30.027344 L 13.441406 30.027344 z M 17.775391 30.046875 L 19.632812 30.046875 L 19.632812 31.521484 L 17.775391 31.521484 L 17.775391 30.046875 z M 8.6757812 30.085938 L 8.6757812 31.589844 L 10.542969 31.589844 L 10.542969 30.085938 L 8.6757812 30.085938 z M 6.3007812 30.117188 L 6.3007812 31.644531 L 8.1777344 31.644531 L 8.1777344 30.117188 L 6.3007812 30.117188 z M 13.447266 31.957031 L 13.447266 33.462891 L 15.324219 33.462891 L 15.324219 31.957031 L 13.447266 31.957031 z M 17.771484 31.978516 L 19.630859 31.978516 L 19.630859 33.455078 L 17.771484 33.455078 L 17.771484 31.978516 z M 11.050781 31.980469 L 11.050781 33.486328 L 12.933594 33.486328 L 12.933594 31.980469 L 11.050781 31.980469 z M 8.6855469 32.011719 L 8.6855469 33.539062 L 10.541016 33.539062 L 10.541016 32.011719 L 8.6855469 32.011719 z M 39.560547 33.154297 C 40.153547 33.211297 40.749234 33.267172 41.365234 33.326172 L 41.365234 35.132812 C 40.760234 35.062812 40.170547 34.992875 39.560547 34.921875 L 39.560547 33.154297 z M 8.6796875 33.960938 L 8.6796875 35.474609 L 10.542969 35.474609 L 10.542969 33.960938 L 8.6796875 33.960938 z M 11.058594 35.845703 L 11.058594 37.347656 L 12.939453 37.347656 L 12.939453 35.845703 L 11.058594 35.845703 z M 15.871094 35.853516 L 17.720703 35.853516 L 17.720703 37.34375 L 15.871094 37.34375 L 15.871094 35.853516 z M 8.6757812 35.914062 L 8.6757812 37.429688 L 10.542969 37.429688 L 10.542969 35.914062 L 8.6757812 35.914062 z M 25.474609 36.003906 L 27.316406 36.003906 L 27.316406 37.566406 C 27.008406 37.552406 25.786609 37.496422 25.474609 37.482422 L 25.474609 36.003906 z M 30.226562 36.197266 C 30.694562 36.230266 31.149422 36.262922 31.607422 36.294922 C 31.760422 36.305922 31.912406 36.315172 32.066406 36.326172 L 32.066406 37.904297 C 31.610406 37.869297 30.383563 37.773719 30.226562 37.761719 L 30.226562 36.197266 z M 11.050781 37.775391 L 11.050781 39.28125 L 12.931641 39.28125 L 12.931641 37.775391 L 11.050781 37.775391 z M 8.1816406 37.884766 C 7.5376406 37.920766 6.9207344 37.954281 6.3027344 37.988281 L 6.3027344 39.554688 C 6.9377344 39.515687 7.5526406 39.477453 8.1816406 39.439453 L 8.1816406 37.884766 z M 15.833984 39.660156 L 15.833984 41.175781 L 17.714844 41.175781 L 17.714844 39.660156 L 15.833984 39.660156 z M 13.447266 39.664062 L 13.447266 41.173828 L 15.328125 41.173828 L 15.328125 39.664062 L 13.447266 39.664062 z M 20.636719 39.689453 L 22.501953 39.689453 L 22.501953 41.164062 L 20.636719 41.164062 L 20.636719 39.689453 z M 11.050781 39.710938 L 11.050781 41.212891 L 12.933594 41.212891 L 12.933594 39.710938 L 11.050781 39.710938 z M 10.542969 39.730469 C 9.9109688 39.758469 9.2927812 39.786453 8.6757812 39.814453 L 8.6757812 41.365234 C 9.3077812 41.336234 9.9259688 41.306344 10.542969 41.277344 L 10.542969 39.730469 z M 8.1796875 39.835938 C 7.5466875 39.875937 6.9307812 39.914125 6.3007812 39.953125 L 6.3007812 39.955078 L 6.3007812 41.521484 C 6.9397812 41.477484 7.5546875 41.435578 8.1796875 41.392578 L 8.1796875 41.390625 L 8.1796875 39.837891 L 8.1796875 39.835938 z M 25.359375 39.992188 L 25.359375 41.558594 C 26.006375 41.612594 26.628187 41.665797 27.242188 41.716797 C 27.259187 41.666797 27.271484 41.649812 27.271484 41.632812 C 27.273484 41.325812 27.274391 41.017937 27.275391 40.710938 C 27.276391 40.147938 27.275516 40.148656 26.728516 40.097656 C 26.674516 40.092656 26.622359 40.080172 26.568359 40.076172 C 26.168359 40.048172 25.768375 40.020187 25.359375 39.992188 z M 34.826172 40.984375 L 34.826172 42.660156 C 35.446172 42.760156 36.052594 42.860891 36.683594 42.962891 L 36.683594 41.257812 C 36.056594 41.165813 35.450172 41.076375 34.826172 40.984375 z M 37.162109 41.335938 C 37.162109 41.504937 37.162109 41.660547 37.162109 41.810547 C 37.162109 41.960547 37.162063 42.106 37.164062 42.25 C 37.167063 42.445 37.12325 42.679469 37.15625 42.855469 C 37.16725 42.914469 37.18675 42.965812 37.21875 43.007812 C 37.33475 43.159813 37.680734 43.1405 37.927734 43.1875 C 38.293734 43.2575 38.65925 43.320719 39.03125 43.386719 L 39.03125 41.644531 C 38.41125 41.541531 37.809109 41.441937 37.162109 41.335938 z M 15.839844 41.591797 L 15.839844 43.101562 L 17.714844 43.101562 L 17.714844 41.591797 L 15.839844 41.591797 z M 11.058594 41.640625 L 11.058594 43.150391 L 12.941406 43.150391 L 12.941406 41.640625 L 11.058594 41.640625 z M 39.533203 41.734375 L 39.533203 43.486328 C 40.145203 43.611328 40.752094 43.735328 41.371094 43.861328 L 41.371094 43.859375 L 41.371094 42.072266 C 40.752094 41.958266 40.150203 41.847375 39.533203 41.734375 z M 25.365234 41.958984 L 25.365234 41.960938 L 25.365234 43.527344 L 25.365234 43.529297 C 25.996234 43.589297 26.614812 43.648937 27.257812 43.710938 L 27.257812 42.123047 L 27.257812 42.121094 C 26.615813 42.066094 25.992234 42.012984 25.365234 41.958984 z M 34.824219 43.087891 L 34.824219 44.763672 C 35.446219 44.877672 36.057453 44.988516 36.689453 45.103516 L 36.689453 43.398438 C 36.065453 43.294438 35.454219 43.192891 34.824219 43.087891 z M 15.835938 43.515625 L 15.835938 45.232422 L 17.71875 45.232422 L 17.71875 43.515625 L 15.835938 43.515625 z M 18.222656 43.572266 L 18.222656 45.292969 L 20.101562 45.292969 L 20.101562 43.572266 L 18.222656 43.572266 z M 20.582031 43.611328 C 20.582031 44.169328 20.577797 44.691891 20.591797 45.212891 C 20.592797 45.268891 20.706391 45.359188 20.775391 45.367188 C 21.052391 45.399187 21.331328 45.405922 21.611328 45.419922 C 21.904328 45.434922 22.198141 45.448891 22.494141 45.462891 L 22.494141 43.708984 C 21.845141 43.675984 21.227031 43.644328 20.582031 43.611328 z M 22.988281 43.740234 L 22.988281 45.503906 C 23.618281 45.555906 24.235766 45.606156 24.884766 45.660156 L 24.884766 44.5 C 24.884766 43.906 24.885969 43.901703 24.292969 43.845703 C 23.863969 43.804703 23.432281 43.775234 22.988281 43.740234 z M 27.746094 44.169922 L 27.746094 45.96875 C 28.377094 46.05075 28.993047 46.130891 29.623047 46.212891 L 29.623047 44.390625 C 28.994047 44.315625 28.378094 44.244922 27.746094 44.169922 z M 30.138672 44.460938 L 30.138672 46.287109 L 30.138672 46.289062 C 30.770672 46.387062 31.382766 46.481125 32.009766 46.578125 L 32.009766 44.726562 C 31.376766 44.636563 30.762672 44.548938 30.138672 44.460938 z M 34.810547 45.1875 C 34.810547 45.8155 34.808406 46.386078 34.816406 46.955078 C 34.817406 47.007078 34.878781 47.095469 34.925781 47.105469 C 35.507781 47.230469 36.091406 47.344844 36.691406 47.464844 L 36.691406 45.537109 C 36.071406 45.422109 35.460547 45.3085 34.810547 45.1875 z M 37.162109 45.642578 C 37.162109 46.263578 37.158969 46.841922 37.167969 47.419922 C 37.168969 47.480922 37.229297 47.583703 37.279297 47.595703 C 37.857297 47.735703 38.439781 47.862 39.050781 48 C 39.050781 47.367 39.054969 46.754578 39.042969 46.142578 C 39.041969 46.089578 38.936187 46.008187 38.867188 45.992188 C 38.507188 45.906188 38.14425 45.835719 37.78125 45.761719 C 37.58325 45.721719 37.384109 45.685578 37.162109 45.642578 z"/>
</svg>
