<?xml version="1.0"?>
<svg xmlns="http://www.w3.org/2000/svg" version="1" viewBox="0 0 50 50" enable-background="new 0 0 50 50">
    <path style="text-indent:0;text-align:start;line-height:normal;text-transform:none;block-progression:tb;-inkscape-font-specification:Bitstream Vera Sans" d="M 30.59375 0.09375 A 1.0001 1.0001 0 0 0 30.15625 0.25 C 29.820474 0.46367573 28.500959 1.0544441 26.875 1.65625 C 25.249041 2.2580559 23.250102 2.9437147 21.28125 3.625 C 19.312398 4.3062853 17.360704 4.9852839 15.8125 5.5625 C 15.038398 5.851108 14.384085 6.1083462 13.84375 6.34375 C 13.303415 6.5791538 12.943048 6.7092481 12.5625 7.03125 C 12.053234 7.4621671 11.518542 8.1523605 10.8125 9.09375 C 10.106458 10.035139 9.3006878 11.17951 8.53125 12.375 C 7.7618122 13.57049 7.0198694 14.813823 6.46875 15.90625 C 5.9176306 16.998677 5.5 17.858929 5.5 18.8125 C 5.5 19.209524 5.573662 19.306689 5.65625 19.625 C 5.738838 19.943311 5.8536503 20.343061 6 20.8125 C 6.2926995 21.751378 6.6873629 22.976691 7.1875 24.3125 C 8.1157775 26.791823 9.3228045 29.658597 10.625 31.90625 C 8.9524546 33.816581 8 36.289602 8 39 C 8 45.045455 12.954545 50 19 50 C 25.045455 50 30 45.045455 30 39 C 30 36.039719 28.843147 33.310142 26.9375 31.34375 C 27.777441 30.963912 29.046316 30.507472 30.53125 29.875 C 32.622837 28.984139 35.118595 27.665344 37.34375 25.28125 C 39.625201 22.832863 40.674646 19.301659 41.78125 16.09375 C 42.887854 12.885841 44.062282 10.048444 45.875 8.8125 A 1.0001 1.0001 0 0 0 46.1875 7.53125 C 44.781991 4.8373587 41.718473 3.099998 38.65625 1.90625 C 35.594027 0.71250198 32.527083 0.09375 30.6875 0.09375 A 1.0001 1.0001 0 0 0 30.59375 0.09375 z M 30.84375 2.125 C 32.252096 2.152605 35.172751 2.6722165 37.9375 3.75 C 40.493166 4.7462768 42.728163 6.2622867 43.90625 7.9375 C 41.923984 9.7886199 40.888768 12.589301 39.90625 15.4375 C 38.787854 18.679591 37.693549 21.954637 35.875 23.90625 C 33.900155 26.022156 31.708413 27.197111 29.75 28.03125 C 27.808562 28.858159 26.119723 29.259619 24.90625 30.1875 C 24.89564 30.1956 24.88554 30.21055 24.875 30.21875 C 23.812271 31.007488 22.532321 32.251259 21.09375 33.3125 C 19.642229 34.383294 18.075595 35.1875 16.6875 35.1875 C 15.127183 35.1875 13.326709 33.77419 13.1875 32.3125 C 13.08963 31.216311 13.515034 30.189793 14.28125 29.1875 C 15.047466 28.185207 16.152174 27.242301 17.3125 26.46875 C 19.633152 24.921649 22.0625 24.03125 22.0625 24.03125 A 1.0001 1.0001 0 0 0 22.5 23.6875 C 22.5 23.6875 23.510896 22.292258 24.6875 20.78125 C 25.275802 20.025746 25.917365 19.24083 26.46875 18.59375 C 27.020135 17.94667 27.549918 17.411121 27.71875 17.28125 A 1.0001 1.0001 0 0 0 26.84375 15.53125 C 26.84375 15.53125 25.556046 15.867472 23.96875 15.9375 C 22.381454 16.00753 20.617773 15.735563 19.78125 14.96875 A 1.0001 1.0001 0 0 0 18.21875 15.25 C 18.21875 15.25 16.236436 18.75193 13.59375 19.3125 A 1.0001 1.0001 0 0 0 13 20.90625 C 13 20.90625 13.818933 21.924158 14 24.1875 A 1.0001 1.0001 0 0 0 14.25 24.78125 C 14.25 24.78125 14.436477 24.984557 14.65625 25.28125 C 14.825604 25.509878 14.950212 25.711367 15.03125 25.875 C 14.205108 26.527376 13.329933 27.128379 12.6875 27.96875 C 12.319524 28.450103 12.063592 29.00785 11.8125 29.5625 C 10.832281 27.670193 9.8091085 25.619106 9.0625 23.625 C 8.5751371 22.323309 8.1854255 21.114247 7.90625 20.21875 C 7.7666622 19.771001 7.6638968 19.395361 7.59375 19.125 C 7.5516619 18.962783 7.5447818 18.804076 7.53125 18.75 C 7.5549643 18.58256 7.7732525 17.757506 8.25 16.8125 C 8.7520056 15.817427 9.4756878 14.62326 10.21875 13.46875 C 10.961812 12.31424 11.734167 11.177361 12.40625 10.28125 C 13.078333 9.3851395 13.703016 8.6815829 13.84375 8.5625 C 13.788202 8.6095019 14.142288 8.3665493 14.625 8.15625 C 15.107712 7.9459507 15.775665 7.7192045 16.53125 7.4375 C 18.042421 6.8740911 19.968852 6.1812147 21.9375 5.5 C 23.906148 4.8187853 25.904084 4.1450691 27.5625 3.53125 C 29.036257 2.9857774 30.069899 2.5569091 30.84375 2.125 z M 19.46875 16.9375 C 20.912219 17.730661 22.562616 18.002293 24.03125 17.9375 C 24.287474 17.9262 24.260113 17.89616 24.5 17.875 C 24.043802 18.427457 23.576431 18.982767 23.125 19.5625 C 22.020217 20.981274 21.237511 22.085425 21.09375 22.28125 C 20.745648 22.41358 18.78553 23.205146 16.5625 24.625 C 16.456568 24.463194 16.384201 24.232734 16.28125 24.09375 C 16.08202 23.82479 15.997416 23.730142 15.90625 23.625 C 15.748568 22.398791 15.488799 21.402913 15.1875 20.75 C 17.69597 19.665535 18.969507 17.831564 19.46875 16.9375 z M 25.25 32.5 C 26.943946 34.1121 28 36.431553 28 39 C 28 43.954545 23.954545 48 19 48 C 14.045455 48 10 43.954545 10 39 C 10 37.055386 10.588571 35.286324 11.625 33.84375 C 12.44121 35.847705 14.512189 37.1875 16.6875 37.1875 C 18.799405 37.1875 20.682771 36.116706 22.28125 34.9375 C 23.467207 34.062614 24.438637 33.187244 25.25 32.5 z" overflow="visible" enable-background="accumulate" font-family="Bitstream Vera Sans"/>
</svg>
