<?xml version="1.0"?>
<svg xmlns="http://www.w3.org/2000/svg" version="1" viewBox="0 0 26 26" enable-background="new 0 0 26 26">
    <path d="M 16.09375 0 C 14.89375 0.8 7.29375 2.99375 6.59375 3.59375 C 5.89375 4.19375 3 8.49375 3 9.59375 C 3 9.99375 4.09375 13.80625 5.09375 15.90625 C 5.19375 15.20625 6.19375 13.2 7.59375 12.5 C 7.49375 11.1 7 10.40625 7 10.40625 C 8.8 10.00625 9.8125 7.90625 9.8125 7.90625 C 11.1125 9.10625 14.09375 8.3125 14.09375 8.3125 C 13.29375 8.8125 11.09375 11.90625 11.09375 11.90625 C 11.09375 11.90625 5.79375 13.90625 6.09375 16.90625 C 6.19375 18.10625 7.4 19 8.5 19 C 10.4 19 12.1875 16.8875 13.1875 16.1875 C 14.1875 15.4875 16.8875 15.1875 19.1875 12.6875 C 21.3875 10.2875 21.50625 5.3875 23.90625 3.6875 C 22.70625 1.2875 17.79375 0 16.09375 0 z M 5.1875 17.6875 C 4.4875 18.6875 4 19.8 4 21 C 4 23.8 6.2 26 9 26 C 11.8 26 14 23.8 14 21 C 14 19.8 13.6125 18.7125 12.8125 17.8125 C 11.7125 18.8125 10.2 20 8.5 20 C 7.4 20 6.2875 19.4 5.6875 18.5 L 5.1875 17.6875 z"/>
</svg>
