<?xml version="1.0" encoding="utf-8"?>
<!-- Svg Vector Icons : http://www.onlinewebfonts.com/icon -->
<!DOCTYPE svg PUBLIC "-//W3C//DTD SVG 1.1//EN" "http://www.w3.org/Graphics/SVG/1.1/DTD/svg11.dtd">
<svg version="1.1" xmlns="http://www.w3.org/2000/svg" xmlns:xlink="http://www.w3.org/1999/xlink" x="0px" y="0px" viewBox="0 0 1000 1000" enable-background="new 0 0 1000 1000" xml:space="preserve">
<metadata> Svg Vector Icons : http://www.onlinewebfonts.com/icon </metadata>
<g><path d="M945.9,296.6c-28.3-61.8-68.4-116.3-119.2-161.8c-28.8-25.8-73.1-23.3-98.8,5.5c-25.8,28.8-23.3,73.1,5.5,98.8c36.4,32.6,65,71.5,85.2,115.7C839.4,400.4,850,449.3,850,500c0,93.5-36.4,181.4-102.5,247.5C681.4,813.6,593.5,850,500,850c-93.5,0-181.4-36.4-247.5-102.5C186.4,681.4,150,593.5,150,500c0-50.7,10.6-99.6,31.5-145.2c20.2-44.2,48.9-83.1,85.2-115.7c28.8-25.8,31.3-70,5.5-98.8c-25.8-28.8-70-31.3-98.8-5.5c-50.8,45.5-90.9,99.9-119.2,161.8C24.8,360.6,10,429.1,10,500c0,66.1,13,130.3,38.5,190.8c24.7,58.4,60,110.8,105,155.7c45,45,97.4,80.3,155.7,105C369.7,977,433.9,990,500,990c66.1,0,130.3-13,190.8-38.5c58.4-24.7,110.8-60,155.7-105c45-45,80.3-97.4,105-155.7C977,630.3,990,566.1,990,500C990,429.1,975.2,360.6,945.9,296.6L945.9,296.6z M500,500c38.7,0,70-31.3,70-70V80c0-38.7-31.3-70-70-70c-38.7,0-70,31.3-70,70v350C430,468.7,461.3,500,500,500L500,500z"/></g>
</svg>