<?xml version="1.0" encoding="utf-8"?>
<!-- Svg Vector Icons : http://www.onlinewebfonts.com/icon -->
<!DOCTYPE svg PUBLIC "-//W3C//DTD SVG 1.1//EN" "http://www.w3.org/Graphics/SVG/1.1/DTD/svg11.dtd">
<svg version="1.1" xmlns="http://www.w3.org/2000/svg" xmlns:xlink="http://www.w3.org/1999/xlink" x="0px" y="0px" viewBox="0 0 1000 1000" enable-background="new 0 0 1000 1000" xml:space="preserve">
<metadata> Svg Vector Icons : http://www.onlinewebfonts.com/icon </metadata>
<g><path d="M777.8,260.6V107.1c0,0-191.9-76.8-383.9-76.8C201.9,30.3,10,107.1,10,107.1v153.6c0,0,185.9,76.8,374.7,76.8C579.7,337.4,777.8,260.6,777.8,260.6z"/><path d="M682.9,355.5c-64.3,0-123.9,19.8-173.3,53.5c-43.6,3.1-89.5,5.1-134.9,5.1C189.3,414.2,10,375.8,10,375.8v153.6c0,0,179.3,38.4,364.7,38.4c5.4,0,10.7,0,16.1-0.1c-9.7,29.9-15,61.8-15,95c0,6.8,0.2,13.6,0.7,20.3c-0.6,0-1.2,0-1.8,0C189.3,682.9,10,644.5,10,644.5v153.6c0,0,179.3,38.4,364.7,38.4c18.1,0,36.3-0.3,54.4-0.9c55.3,81,148.3,134.2,253.8,134.2c169.6,0,307.1-137.5,307.1-307.1C990,493,852.5,355.5,682.9,355.5z M682.9,931.3c-148.4,0-268.7-120.3-268.7-268.7c0-148.4,120.3-268.7,268.7-268.7c148.4,0,268.7,120.3,268.7,268.7C951.6,811,831.3,931.3,682.9,931.3z"/><path d="M759.6,701c21.5-222.4-65.7-285.4-230.3,38.4C643.6,558,697.4,565.3,682.9,701h-76.8l115.2,115.2L836.4,701C836.4,701,775.7,698.3,759.6,701z"/></g>
</svg>