<?xml version="1.0"?>
<svg xmlns="http://www.w3.org/2000/svg" viewBox="0 0 24 24" enable-background="new 0 0 24 24">
    <path d="M 6 0 L 6 5.09375 L 6 6.5 L 8 8 L 8 3.3125 L 8.09375 3.1875 L 8.3125 3.1875 C 9.0125 3.1875 9.5 2.69375 9.5 2.09375 L 9.5 2 L 14.59375 2 L 14.59375 2.09375 C 14.59375 2.69375 15.1125 3.1875 15.8125 3.1875 L 16 3.1875 L 16 3.3125 L 16 8 L 18 6.5 L 18 5.09375 L 18 0 L 6 0 z M 12 2.8125 C 11.337258 2.8125 10.8125 3.2987368 10.8125 3.90625 C 10.8125 4.5137632 11.337258 5 12 5 C 12.662742 5 13.1875 4.5137632 13.1875 3.90625 C 13.1875 3.2987368 12.662742 2.8125 12 2.8125 z M 5 4.1875 L 3 5.40625 C 2.4 5.80625 2 6.39375 2 7.09375 L 2 18 C 2 19.1 2.9 20 4 20 L 20 20 C 21.1 20 22 19.1 22 18 L 22 7.09375 C 22 6.39375 21.6 5.80625 21 5.40625 L 19 4.1875 L 19 6.5 L 19.9375 7.0625 L 12 13 L 4.0625 7.0625 L 5 6.5 L 5 4.1875 z M 12 6.09375 C 10.5 6.09375 9.20625 7.1875 8.90625 8.6875 L 12 11 L 15.09375 8.6875 C 14.79375 7.1875 13.5 6.09375 12 6.09375 z"/>
</svg>
