<?xml version="1.0"?>
<svg xmlns="http://www.w3.org/2000/svg" width="26" height="26" viewBox="0 0 26 26">
    <path d="M 17.5 3.1875 C 16.223 3.1875 15.1875 4.222 15.1875 5.5 C 15.1875 5.684 15.21 5.86125 15.25 6.03125 C 16.162 6.39025 16.958 7.0105 17.5 7.8125 C 18.777 7.8125 19.8125 6.778 19.8125 5.5 C 19.8125 4.222 18.777 3.1875 17.5 3.1875 z M 17.3125 4.4375 L 17.84375 4.4375 L 17.84375 6.5625 L 17.15625 6.5625 L 17.15625 5.15625 L 16.59375 5.15625 L 17.3125 4.4375 z M 13.5 7.1875 C 11.671 7.1875 10.1875 8.67 10.1875 10.5 C 10.1875 12.33 11.67 13.8125 13.5 13.8125 C 15.33 13.8125 16.8125 12.33 16.8125 10.5 C 16.8125 8.67 15.329 7.1875 13.5 7.1875 z M 13.21875 9 L 14 9 L 14 12 L 13 12 L 13 10 L 12.21875 10 L 13.21875 9 z M 6.03125 13.3125 C 5.6025313 13.3525 5.11925 13.46825 4.5625 13.6875 C 3.1515 14.2445 0.0625 15.6875 0.0625 15.6875 L 2.90625 21.96875 L 4.375 21.03125 C 5.177 20.52125 5.62025 20.43475 6.65625 20.96875 C 7.65925 21.48475 10.73 23.09475 11.5 23.46875 C 13.869 24.61675 14.88725 23.5975 16.03125 22.9375 C 17.00825 22.3745 23.93025 17.79425 24.65625 17.28125 C 25.79125 16.47925 26.142 15.76475 25.625 15.09375 C 25.234 14.58575 24.3445 14.16575 22.5625 15.21875 C 22.7275 14.47875 22.16275 14.03125 21.46875 14.03125 C 20.85375 14.03125 20.1335 14.17 19.5625 14.75 C 18.7425 13.67 17.893 13.82575 16.25 14.84375 C 15.624 15.23275 15.06725 15.54925 14.65625 15.78125 C 14.54725 15.84325 14.463 15.8905 14.375 15.9375 C 14.536 15.9715 14.695 16 14.875 16 C 17.18 16 19 16 19 18 C 19 19.537 17.22525 19.981 16.28125 20 L 12 20 C 10.24 20 8.53125 18.15625 8.53125 18.15625 C 8.53125 18.15625 10.552 19 12 19 L 16.25 19 C 16.257 19 18 18.93 18 18 C 18 17.149 17.532 17 14.875 17 C 13.141 17 11.375 15.96875 11.375 15.96875 C 11.375 15.96875 9.63275 14.68075 9.09375 14.34375 C 8.1375 13.746 7.3174063 13.1925 6.03125 13.3125 z"/>
</svg>
