<?xml version="1.0"?>
<svg xmlns="http://www.w3.org/2000/svg" viewBox="0 0 16 16">
    <path style="line-height:normal;text-indent:0;text-align:start;text-decoration-line:none;text-decoration-style:solid;text-decoration-color:#000;text-transform:none;block-progression:tb;isolation:auto;mix-blend-mode:normal" d="M 11.5 1 C 10.237123 1 9.1958828 1.9534405 9.0332031 3.1738281 C 7.8557364 3.5794923 7 4.6886874 7 6 C 7 7.6509319 8.3490681 9 10 9 C 11.650932 9 13 7.6509319 13 6 C 13 5.8497048 12.976649 5.7050485 12.955078 5.5605469 C 13.62403 5.125471 14 4.3590546 14 3.5 C 14 2.1254686 12.874531 1 11.5 1 z M 11.5 2 C 12.333469 2 13 2.6665314 13 3.5 C 13 3.9862983 12.871701 4.3276433 12.619141 4.5683594 C 12.121491 3.6643124 11.18067 3.0402802 10.087891 3.0078125 C 10.290587 2.4202156 10.84017 2 11.5 2 z M 10 4 C 11.110492 4 12 4.8895082 12 6 C 12 7.1104918 11.110492 8 10 8 C 8.8895082 8 8 7.1104918 8 6 C 8 4.8895082 8.8895082 4 10 4 z M 5 8 C 4.4492217 8 3.8574219 8.1484375 3.8574219 8.1484375 A 0.50005 0.50005 0 0 0 3.8046875 8.1640625 L 1.3339844 9.0273438 A 0.50005 0.50005 0 0 0 1.0253906 9.6582031 L 2.0253906 12.658203 A 0.50005 0.50005 0 0 0 2.6855469 12.964844 L 4.9785156 12.046875 L 8.1542969 13.613281 L 8.0976562 13.582031 C 8.8284235 14.06796 9.7621983 14.133465 10.554688 13.757812 A 0.50005 0.50005 0 0 0 10.621094 13.720703 L 14.779297 10.914062 L 15.193359 10.634766 L 14.634766 9.8066406 L 14.220703 10.085938 L 10.117188 12.853516 C 9.6417702 13.074889 9.0886825 13.038194 8.6523438 12.748047 A 0.50005 0.50005 0 0 0 8.5957031 12.716797 L 5.2207031 11.050781 A 0.50005 0.50005 0 0 0 4.8144531 11.035156 L 2.8066406 11.837891 L 2.1308594 9.8085938 L 4.1035156 9.1191406 C 4.1266655 9.11418 4.6562357 9 5 9 C 5.462 9 5.7094607 9.0140287 6.1914062 9.3925781 C 7.0515234 10.068384 7.4340484 10.4709 8.0195312 10.724609 C 8.6050142 10.978319 9.2416667 11 10.5 11 L 11 11 L 11 10 L 10.5 10 C 9.2583333 10 8.7699858 9.9591813 8.4179688 9.8066406 C 8.0659516 9.6540999 7.6984766 9.3066157 6.8085938 8.6074219 C 6.1625393 8.0999713 5.538 8 5 8 z" font-weight="400" font-family="sans-serif" white-space="normal" overflow="visible"/>
</svg>
