<?xml version="1.0"?>
<svg xmlns="http://www.w3.org/2000/svg" viewBox="0 0 24 24" fill-rule="evenodd" clip-rule="evenodd" stroke-linejoin="round" stroke-miterlimit="1.414">
    <path d="M 2.0214844 2 L 2.0214844 12 L 22.021484 12 L 22.021484 2 L 2.0214844 2 z M 5.5214844 4 L 18.521484 4 C 18.521484 4.828 19.194484 5.5 20.021484 5.5 L 20.021484 8.5 C 19.194484 8.5 18.521484 9.172 18.521484 10 L 5.5214844 10 C 5.5214844 9.172 4.8494844 8.5 4.0214844 8.5 L 4.0214844 5.5 C 4.8494844 5.5 5.5214844 4.828 5.5214844 4 z M 12.021484 4.5 C 11.957484 4.5 11.892125 4.5028125 11.828125 4.5078125 C 11.454125 4.5368125 11.104922 4.6472656 10.794922 4.8222656 L 10.792969 4.8222656 C 10.782969 4.8282656 10.773672 4.8338437 10.763672 4.8398438 L 10.761719 4.8417969 L 10.759766 4.8417969 L 10.751953 4.8476562 L 10.746094 4.8496094 L 10.744141 4.8515625 C 10.108141 5.2295625 9.654875 5.8815313 9.546875 6.6445312 L 9.546875 6.6464844 L 9.546875 6.6503906 L 9.5449219 6.6601562 L 9.5449219 6.6640625 L 9.5449219 6.6660156 L 9.5429688 6.6816406 C 9.5419687 6.6856406 9.5390625 6.6903125 9.5390625 6.6953125 L 9.5390625 6.6972656 L 9.5390625 6.6992188 L 9.5390625 6.7050781 L 9.5371094 6.7109375 L 9.5371094 6.7128906 L 9.5371094 6.7148438 L 9.5371094 6.7167969 L 9.5351562 6.7285156 C 9.5341563 6.7335156 9.5351562 6.7371875 9.5351562 6.7421875 L 9.5332031 6.7441406 L 9.5332031 6.7460938 L 9.5332031 6.7539062 L 9.5332031 6.7578125 L 9.5332031 6.7597656 L 9.5332031 6.7617188 L 9.5292969 6.7929688 C 9.5172969 6.9359687 9.51925 7.0796563 9.53125 7.2226562 L 9.53125 7.2246094 L 9.53125 7.2304688 L 9.5332031 7.2382812 L 9.5332031 7.2402344 C 9.5332031 7.2452344 9.5332031 7.2508594 9.5332031 7.2558594 L 9.5351562 7.2578125 L 9.5351562 7.265625 L 9.5351562 7.2695312 L 9.5351562 7.2714844 L 9.5351562 7.2734375 L 9.5371094 7.2773438 L 9.5371094 7.2832031 L 9.5371094 7.2871094 C 9.5371094 7.2921094 9.5390625 7.2967813 9.5390625 7.3007812 L 9.5390625 7.3027344 L 9.5390625 7.3066406 L 9.5410156 7.3125 L 9.5410156 7.3144531 L 9.5429688 7.3183594 L 9.5429688 7.3222656 L 9.5429688 7.3242188 L 9.5429688 7.328125 L 9.5449219 7.3339844 L 9.5449219 7.3359375 C 9.5449219 7.3399375 9.545875 7.3436563 9.546875 7.3476562 L 9.546875 7.3496094 L 9.546875 7.3535156 L 9.546875 7.359375 L 9.5488281 7.3613281 L 9.5488281 7.3652344 L 9.5488281 7.3691406 L 9.5488281 7.3710938 L 9.5507812 7.3769531 L 9.5507812 7.3808594 L 9.5507812 7.3828125 C 9.5507813 7.3878125 9.5517344 7.3905313 9.5527344 7.3945312 L 9.5527344 7.3964844 L 9.5527344 7.3984375 L 9.5546875 7.40625 L 9.5546875 7.4082031 L 9.5546875 7.4101562 L 9.5566406 7.4140625 L 9.5566406 7.4199219 L 9.5566406 7.4238281 L 9.5585938 7.4277344 L 9.5585938 7.4296875 L 9.5585938 7.4316406 L 9.5605469 7.4414062 L 9.5625 7.453125 L 9.5625 7.4550781 L 9.5625 7.4570312 L 9.5644531 7.4609375 L 9.5644531 7.4648438 L 9.5664062 7.4707031 L 9.5664062 7.4726562 L 9.5664062 7.4746094 C 9.5674062 7.4796094 9.5673594 7.4832813 9.5683594 7.4882812 L 9.5703125 7.4921875 L 9.5703125 7.4980469 L 9.5722656 7.5019531 L 9.5722656 7.5039062 L 9.5722656 7.5078125 L 9.5742188 7.5097656 L 9.5742188 7.5136719 C 9.6152187 7.7106719 9.6796719 7.8972188 9.7636719 8.0742188 L 9.7636719 8.0761719 L 9.765625 8.078125 L 9.7675781 8.0820312 L 9.7695312 8.0859375 L 9.7714844 8.0898438 L 9.7753906 8.0976562 L 9.7773438 8.1015625 L 9.7792969 8.1074219 L 9.7792969 8.109375 L 9.78125 8.1113281 L 9.7832031 8.1132812 L 9.7851562 8.1171875 L 9.7871094 8.1210938 L 9.7871094 8.1230469 L 9.7890625 8.1269531 L 9.8027344 8.1503906 L 9.8046875 8.1542969 L 9.8085938 8.1621094 L 9.8085938 8.1640625 L 9.8125 8.1699219 L 9.8144531 8.1757812 L 9.8164062 8.1777344 L 9.8183594 8.1835938 L 9.8203125 8.1875 L 9.8222656 8.1894531 L 9.8222656 8.1914062 L 9.8261719 8.1972656 L 9.828125 8.1992188 L 9.828125 8.2011719 L 9.8300781 8.203125 L 9.8339844 8.2109375 L 9.8359375 8.2128906 L 9.8378906 8.21875 L 9.8417969 8.2246094 C 9.9577969 8.4306094 10.102531 8.61725 10.269531 8.78125 L 10.269531 8.7832031 L 10.275391 8.7890625 L 10.279297 8.7929688 L 10.285156 8.7988281 L 10.289062 8.8007812 L 10.289062 8.8027344 L 10.291016 8.8046875 L 10.296875 8.8085938 L 10.298828 8.8105469 L 10.300781 8.8125 L 10.302734 8.8144531 L 10.308594 8.8203125 L 10.310547 8.8222656 L 10.314453 8.8242188 L 10.318359 8.8300781 L 10.320312 8.8300781 L 10.326172 8.8359375 L 10.330078 8.8398438 L 10.351562 8.859375 L 10.355469 8.8632812 L 10.361328 8.8691406 L 10.363281 8.8691406 L 10.369141 8.875 L 10.373047 8.8789062 L 10.373047 8.8808594 L 10.380859 8.8867188 L 10.382812 8.8886719 L 10.384766 8.8886719 L 10.386719 8.890625 L 10.392578 8.8964844 L 10.394531 8.8964844 L 10.396484 8.9003906 L 10.404297 8.90625 C 10.586297 9.06125 10.791672 9.1891094 11.013672 9.2871094 L 11.021484 9.2910156 L 11.025391 9.2949219 L 11.027344 9.2949219 L 11.035156 9.296875 L 11.039062 9.2988281 L 11.039062 9.3007812 L 11.042969 9.3007812 L 11.048828 9.3027344 L 11.050781 9.3046875 L 11.052734 9.3046875 L 11.056641 9.3066406 L 11.0625 9.3085938 L 11.064453 9.3105469 L 11.066406 9.3105469 L 11.070312 9.3125 L 11.076172 9.3144531 L 11.078125 9.3164062 L 11.087891 9.3183594 L 11.091797 9.3203125 C 11.096797 9.3223125 11.101469 9.3251719 11.105469 9.3261719 L 11.119141 9.3320312 C 11.399141 9.4410313 11.704484 9.5 12.021484 9.5 C 12.043484 9.5 12.064937 9.4990469 12.085938 9.4980469 L 12.101562 9.4980469 L 12.111328 9.4980469 L 12.117188 9.4980469 C 12.449188 9.4860469 12.764781 9.4092969 13.050781 9.2792969 C 13.054781 9.2772969 13.0585 9.2754375 13.0625 9.2734375 L 13.064453 9.2734375 L 13.068359 9.2714844 L 13.076172 9.2675781 L 13.076172 9.265625 L 13.082031 9.2636719 L 13.087891 9.2617188 L 13.089844 9.2617188 L 13.091797 9.2597656 L 13.097656 9.2578125 L 13.101562 9.2558594 L 13.105469 9.2539062 L 13.111328 9.25 L 13.113281 9.2480469 L 13.115234 9.2480469 L 13.119141 9.2460938 L 13.125 9.2421875 L 13.126953 9.2421875 L 13.132812 9.2402344 L 13.138672 9.2363281 C 13.354672 9.1283281 13.553516 8.9891719 13.728516 8.8261719 L 13.734375 8.8203125 L 13.738281 8.8164062 L 13.740234 8.8144531 L 13.746094 8.8085938 L 13.748047 8.8085938 L 13.748047 8.8066406 L 13.751953 8.8046875 L 13.757812 8.7988281 L 13.759766 8.796875 L 13.761719 8.7929688 L 13.767578 8.7890625 L 13.767578 8.7871094 L 13.769531 8.7871094 L 13.773438 8.78125 L 13.777344 8.7773438 L 13.779297 8.7773438 L 13.798828 8.7578125 L 13.802734 8.7539062 L 13.808594 8.7460938 L 13.810547 8.7460938 L 13.814453 8.7402344 L 13.818359 8.7363281 L 13.820312 8.734375 L 13.826172 8.7304688 L 13.828125 8.7265625 L 13.830078 8.7246094 L 13.837891 8.71875 L 13.837891 8.7167969 L 13.839844 8.7167969 L 13.841797 8.7148438 L 13.847656 8.7070312 L 13.847656 8.7050781 C 14.010656 8.5310781 14.149812 8.3331875 14.257812 8.1171875 L 14.261719 8.1113281 L 14.263672 8.1054688 L 14.265625 8.1035156 L 14.267578 8.0976562 L 14.269531 8.09375 L 14.269531 8.0917969 L 14.271484 8.0898438 L 14.275391 8.0820312 L 14.275391 8.0800781 L 14.277344 8.0800781 L 14.277344 8.0761719 L 14.28125 8.0703125 L 14.28125 8.0683594 L 14.283203 8.0664062 L 14.285156 8.0605469 L 14.287109 8.0566406 L 14.287109 8.0546875 L 14.289062 8.0546875 L 14.292969 8.046875 L 14.294922 8.0429688 L 14.306641 8.015625 L 14.308594 8.0117188 L 14.310547 8.0078125 L 14.310547 8.0039062 L 14.3125 8.0019531 L 14.314453 7.9980469 L 14.314453 7.9960938 L 14.316406 7.9902344 L 14.318359 7.9863281 L 14.322266 7.9785156 L 14.324219 7.9746094 L 14.324219 7.9726562 L 14.328125 7.9667969 L 14.328125 7.9648438 C 14.404125 7.7828438 14.459234 7.590625 14.490234 7.390625 L 14.492188 7.3867188 L 14.492188 7.3847656 L 14.492188 7.3808594 L 14.492188 7.3769531 L 14.494141 7.3691406 L 14.494141 7.3652344 L 14.494141 7.3632812 C 14.495141 7.3592813 14.495094 7.3555625 14.496094 7.3515625 L 14.496094 7.3496094 L 14.498047 7.3476562 L 14.498047 7.3417969 L 14.498047 7.3359375 L 14.498047 7.3339844 L 14.5 7.3320312 L 14.503906 7.3046875 L 14.503906 7.3027344 L 14.503906 7.2988281 L 14.503906 7.2929688 L 14.505859 7.2890625 L 14.505859 7.2871094 L 14.505859 7.2832031 L 14.505859 7.2792969 L 14.505859 7.2753906 L 14.507812 7.2714844 L 14.507812 7.2695312 L 14.507812 7.2675781 L 14.507812 7.2578125 L 14.509766 7.2558594 C 14.509766 7.2508594 14.509766 7.2452344 14.509766 7.2402344 L 14.509766 7.2382812 L 14.511719 7.2285156 L 14.511719 7.2246094 L 14.511719 7.2226562 L 14.511719 7.2167969 L 14.513672 7.2109375 L 14.513672 7.2070312 C 14.523672 7.0800313 14.524625 6.9512187 14.515625 6.8242188 L 14.515625 6.8164062 L 14.511719 6.7792969 L 14.507812 6.7363281 C 14.505812 6.7193281 14.503953 6.7035 14.501953 6.6875 L 14.5 6.6738281 C 14.498 6.6568281 14.495188 6.6390469 14.492188 6.6230469 L 14.490234 6.6035156 L 14.482422 6.5625 L 14.476562 6.5273438 L 14.466797 6.4804688 L 14.462891 6.4609375 C 14.304891 5.7419375 13.836078 5.1398281 13.205078 4.7988281 L 13.191406 4.7910156 L 13.158203 4.7734375 L 13.142578 4.765625 C 12.805578 4.595625 12.424484 4.5 12.021484 4.5 z M 11.021484 14 L 11.021484 18 L 9.0214844 18 L 11.021484 20 L 12.021484 21 L 13.021484 20 L 15.021484 18 L 13.021484 18 L 13.021484 14 L 11.021484 14 z"/>
</svg>
