<?xml version="1.0"?>
<svg xmlns="http://www.w3.org/2000/svg" viewBox="0 0 24 24" fill-rule="evenodd" clip-rule="evenodd" stroke-linejoin="round" stroke-miterlimit="1.414">
    <path d="M 12.021484 3 L 9.0214844 6 L 11.021484 6 L 11.021484 10 L 13.021484 10 L 13.021484 6 L 15.021484 6 L 12.021484 3 z M 2.0214844 12 L 2.0214844 22 L 22.021484 22 L 22.021484 12 L 2.0214844 12 z M 5.5214844 14 L 18.521484 14 C 18.521484 14.828 19.194484 15.5 20.021484 15.5 L 20.021484 18.5 C 19.194484 18.5 18.521484 19.172 18.521484 20 L 5.5214844 20 C 5.5214844 19.172 4.8494844 18.5 4.0214844 18.5 L 4.0214844 15.5 C 4.8494844 15.5 5.5214844 14.828 5.5214844 14 z M 12.021484 14.5 C 11.957484 14.5 11.892125 14.502812 11.828125 14.507812 C 11.454125 14.536812 11.104922 14.647266 10.794922 14.822266 L 10.792969 14.822266 L 10.791016 14.824219 L 10.777344 14.830078 L 10.763672 14.839844 L 10.761719 14.841797 L 10.759766 14.841797 L 10.751953 14.847656 L 10.746094 14.849609 L 10.744141 14.851562 C 10.108141 15.229563 9.654875 15.881531 9.546875 16.644531 L 9.546875 16.646484 L 9.546875 16.650391 L 9.5449219 16.660156 L 9.5449219 16.664062 L 9.5449219 16.666016 L 9.5429688 16.681641 C 9.5419687 16.685641 9.5390625 16.690313 9.5390625 16.695312 L 9.5390625 16.697266 L 9.5390625 16.699219 L 9.5390625 16.705078 L 9.5371094 16.710938 L 9.5371094 16.712891 L 9.5371094 16.714844 L 9.5371094 16.716797 L 9.5351562 16.728516 C 9.5341562 16.733516 9.5351562 16.737188 9.5351562 16.742188 L 9.5332031 16.744141 L 9.5332031 16.746094 L 9.5332031 16.753906 L 9.5332031 16.757812 L 9.5332031 16.759766 L 9.5332031 16.761719 L 9.5292969 16.792969 C 9.5172969 16.935969 9.51925 17.079656 9.53125 17.222656 L 9.53125 17.224609 L 9.53125 17.230469 L 9.5332031 17.238281 L 9.5332031 17.240234 C 9.5332031 17.245234 9.5332031 17.250859 9.5332031 17.255859 L 9.5351562 17.257812 L 9.5351562 17.265625 L 9.5351562 17.269531 L 9.5351562 17.271484 L 9.5351562 17.273438 L 9.5371094 17.277344 L 9.5371094 17.283203 L 9.5371094 17.287109 C 9.5371094 17.292109 9.5390625 17.296781 9.5390625 17.300781 L 9.5390625 17.302734 L 9.5390625 17.306641 L 9.5410156 17.3125 L 9.5410156 17.314453 L 9.5429688 17.318359 L 9.5429688 17.322266 L 9.5429688 17.324219 L 9.5429688 17.328125 L 9.5449219 17.333984 L 9.5449219 17.335938 C 9.5449219 17.339938 9.545875 17.343656 9.546875 17.347656 L 9.546875 17.349609 L 9.546875 17.353516 L 9.546875 17.359375 L 9.5488281 17.361328 L 9.5488281 17.365234 L 9.5488281 17.369141 L 9.5488281 17.371094 L 9.5507812 17.376953 L 9.5507812 17.380859 L 9.5507812 17.382812 C 9.5507812 17.387813 9.5517344 17.390531 9.5527344 17.394531 L 9.5527344 17.396484 L 9.5527344 17.398438 L 9.5546875 17.40625 L 9.5546875 17.408203 L 9.5546875 17.410156 L 9.5566406 17.414062 L 9.5566406 17.419922 L 9.5566406 17.423828 L 9.5585938 17.427734 L 9.5585938 17.429688 L 9.5585938 17.431641 L 9.5605469 17.441406 L 9.5625 17.453125 L 9.5625 17.455078 L 9.5625 17.457031 L 9.5644531 17.460938 L 9.5644531 17.464844 L 9.5664062 17.470703 L 9.5664062 17.472656 L 9.5664062 17.474609 C 9.5674062 17.479609 9.5673594 17.483281 9.5683594 17.488281 L 9.5703125 17.492188 L 9.5703125 17.498047 L 9.5722656 17.501953 L 9.5722656 17.503906 L 9.5722656 17.507812 L 9.5742188 17.509766 L 9.5742188 17.513672 C 9.6152188 17.710672 9.6796719 17.897219 9.7636719 18.074219 L 9.7636719 18.076172 L 9.765625 18.078125 L 9.7675781 18.082031 L 9.7695312 18.085938 L 9.7714844 18.089844 L 9.7753906 18.097656 L 9.7773438 18.101562 L 9.7792969 18.107422 L 9.7792969 18.109375 L 9.78125 18.111328 L 9.7832031 18.113281 L 9.7851562 18.117188 L 9.7871094 18.121094 L 9.7871094 18.123047 L 9.7890625 18.126953 L 9.7949219 18.138672 L 9.8027344 18.150391 L 9.8046875 18.154297 L 9.8085938 18.162109 L 9.8085938 18.164062 L 9.8125 18.169922 L 9.8144531 18.175781 L 9.8164062 18.177734 L 9.8183594 18.183594 L 9.8203125 18.1875 L 9.8222656 18.189453 L 9.8222656 18.191406 L 9.8261719 18.197266 L 9.828125 18.199219 L 9.828125 18.201172 L 9.8300781 18.203125 L 9.8339844 18.210938 L 9.8359375 18.212891 L 9.8378906 18.21875 L 9.8417969 18.224609 C 9.9577969 18.430609 10.102531 18.61725 10.269531 18.78125 L 10.269531 18.783203 L 10.275391 18.789062 L 10.279297 18.792969 L 10.285156 18.798828 L 10.289062 18.800781 L 10.289062 18.802734 L 10.291016 18.804688 L 10.296875 18.808594 L 10.298828 18.810547 L 10.300781 18.8125 L 10.302734 18.814453 L 10.308594 18.820312 L 10.310547 18.822266 L 10.314453 18.824219 L 10.318359 18.830078 L 10.320312 18.830078 L 10.326172 18.835938 L 10.330078 18.839844 L 10.330078 18.841797 L 10.341797 18.849609 L 10.351562 18.859375 L 10.355469 18.863281 L 10.361328 18.869141 L 10.363281 18.869141 L 10.369141 18.875 L 10.373047 18.878906 L 10.373047 18.880859 L 10.380859 18.886719 L 10.382812 18.888672 L 10.384766 18.888672 L 10.386719 18.890625 L 10.392578 18.896484 L 10.394531 18.896484 L 10.396484 18.900391 L 10.404297 18.90625 C 10.586297 19.06125 10.791672 19.189109 11.013672 19.287109 L 11.021484 19.291016 L 11.025391 19.294922 L 11.027344 19.294922 L 11.035156 19.296875 L 11.039062 19.298828 L 11.039062 19.300781 L 11.042969 19.300781 L 11.048828 19.302734 L 11.050781 19.304688 L 11.052734 19.304688 L 11.056641 19.306641 L 11.0625 19.308594 L 11.064453 19.310547 L 11.066406 19.310547 L 11.070312 19.3125 L 11.076172 19.314453 L 11.078125 19.316406 L 11.087891 19.318359 L 11.091797 19.320312 L 11.105469 19.326172 L 11.119141 19.332031 C 11.399141 19.441031 11.704484 19.5 12.021484 19.5 C 12.043484 19.5 12.064937 19.499047 12.085938 19.498047 L 12.101562 19.498047 L 12.111328 19.498047 L 12.117188 19.498047 C 12.449188 19.486047 12.764781 19.409297 13.050781 19.279297 L 13.0625 19.273438 L 13.064453 19.273438 L 13.068359 19.271484 L 13.076172 19.267578 L 13.076172 19.265625 L 13.082031 19.263672 L 13.087891 19.261719 L 13.089844 19.261719 L 13.091797 19.259766 L 13.097656 19.257812 L 13.101562 19.255859 L 13.105469 19.253906 L 13.111328 19.25 L 13.113281 19.248047 L 13.115234 19.248047 L 13.119141 19.246094 L 13.125 19.242188 L 13.126953 19.242188 L 13.132812 19.240234 L 13.138672 19.236328 C 13.354672 19.128328 13.553516 18.989172 13.728516 18.826172 L 13.734375 18.820312 L 13.738281 18.816406 L 13.740234 18.814453 L 13.746094 18.808594 L 13.748047 18.808594 L 13.748047 18.806641 L 13.751953 18.804688 L 13.757812 18.798828 L 13.759766 18.796875 L 13.761719 18.792969 L 13.767578 18.789062 L 13.767578 18.787109 L 13.769531 18.787109 L 13.773438 18.78125 L 13.777344 18.777344 L 13.779297 18.777344 L 13.789062 18.767578 L 13.798828 18.757812 L 13.802734 18.753906 L 13.808594 18.746094 L 13.810547 18.746094 L 13.814453 18.740234 L 13.818359 18.736328 L 13.820312 18.734375 L 13.826172 18.730469 L 13.828125 18.726562 L 13.830078 18.724609 L 13.837891 18.71875 L 13.837891 18.716797 L 13.839844 18.716797 L 13.841797 18.714844 L 13.847656 18.707031 L 13.847656 18.705078 C 14.010656 18.531078 14.149812 18.333188 14.257812 18.117188 L 14.261719 18.111328 L 14.263672 18.105469 L 14.265625 18.103516 L 14.267578 18.097656 L 14.269531 18.09375 L 14.269531 18.091797 L 14.271484 18.089844 L 14.275391 18.082031 L 14.275391 18.080078 L 14.277344 18.080078 L 14.277344 18.076172 L 14.28125 18.070312 L 14.28125 18.068359 L 14.283203 18.066406 L 14.285156 18.060547 L 14.287109 18.056641 L 14.287109 18.054688 L 14.289062 18.054688 L 14.292969 18.046875 L 14.294922 18.042969 L 14.294922 18.041016 L 14.300781 18.027344 L 14.304688 18.017578 L 14.306641 18.015625 L 14.308594 18.011719 L 14.310547 18.007812 L 14.310547 18.003906 L 14.3125 18.001953 L 14.314453 17.998047 L 14.314453 17.996094 L 14.316406 17.990234 L 14.318359 17.986328 L 14.322266 17.978516 L 14.324219 17.974609 L 14.324219 17.972656 L 14.328125 17.966797 L 14.328125 17.964844 C 14.404125 17.782844 14.459234 17.590625 14.490234 17.390625 L 14.492188 17.386719 L 14.492188 17.384766 L 14.492188 17.380859 L 14.492188 17.376953 L 14.494141 17.369141 L 14.494141 17.365234 L 14.494141 17.363281 C 14.495141 17.359281 14.495094 17.355563 14.496094 17.351562 L 14.496094 17.349609 L 14.498047 17.347656 L 14.498047 17.341797 L 14.498047 17.335938 L 14.498047 17.333984 L 14.5 17.332031 L 14.5 17.330078 L 14.501953 17.318359 L 14.503906 17.304688 L 14.503906 17.302734 L 14.503906 17.298828 L 14.503906 17.292969 L 14.505859 17.289062 L 14.505859 17.287109 L 14.505859 17.283203 L 14.505859 17.279297 L 14.505859 17.275391 L 14.507812 17.271484 L 14.507812 17.269531 L 14.507812 17.267578 L 14.507812 17.257812 L 14.509766 17.255859 C 14.509766 17.250859 14.509766 17.245234 14.509766 17.240234 L 14.509766 17.238281 L 14.511719 17.228516 L 14.511719 17.224609 L 14.511719 17.222656 L 14.511719 17.216797 L 14.513672 17.210938 L 14.513672 17.207031 C 14.523672 17.080031 14.524625 16.951219 14.515625 16.824219 L 14.515625 16.816406 L 14.511719 16.779297 L 14.507812 16.736328 C 14.505812 16.719328 14.503953 16.7035 14.501953 16.6875 L 14.5 16.673828 C 14.498 16.656828 14.495188 16.639047 14.492188 16.623047 L 14.490234 16.603516 L 14.482422 16.5625 L 14.476562 16.527344 L 14.466797 16.480469 L 14.462891 16.460938 C 14.304891 15.741937 13.836078 15.139828 13.205078 14.798828 L 13.191406 14.791016 L 13.158203 14.773438 L 13.142578 14.765625 C 12.823578 14.605625 12.464937 14.510953 12.085938 14.501953 C 12.064937 14.500953 12.043484 14.5 12.021484 14.5 z"/>
</svg>
