<?xml version="1.0"?>
<svg xmlns="http://www.w3.org/2000/svg" viewBox="0 0 24 24">
    <path d="M 2 3 L 2 5 L 4 5 L 4 3 L 2 3 z M 6 3 L 6 5 L 14 5 L 14 3 L 6 3 z M 16 3 L 16 5 L 18 5 L 18 3 L 16 3 z M 20 3 L 20 5 L 22 5 L 22 3 L 20 3 z M 2 7 L 2 9 L 4 9 L 4 7 L 2 7 z M 6 7 L 6 9 L 14 9 L 14 7 L 6 7 z M 20 7 L 20 9 L 22 9 L 22 7 L 20 7 z M 2 11 L 2 13 L 4 13 L 4 11 L 2 11 z M 6 11 L 6 13 L 14 13 L 14 11 L 6 11 z M 20 11 L 20 13 L 22 13 L 22 11 L 20 11 z M 2 15 L 2 17 L 4 17 L 4 15 L 2 15 z M 6 15 L 6 17 L 14 17 L 14 15 L 6 15 z M 16 15 L 16 17 L 18 17 L 18 15 L 16 15 z M 20 15 L 20 17 L 22 17 L 22 15 L 20 15 z M 2 19 L 2 21 L 4 21 L 4 19 L 2 19 z M 6 19 L 6 21 L 14 21 L 14 19 L 6 19 z M 20 19 L 20 21 L 22 21 L 22 19 L 20 19 z"/>
</svg>
