<svg width="320" height="320" viewBox="0 0 320 320" xmlns="http://www.w3.org/2000/svg"><clipPath id="a"><path d="m350 479.6h291.6v240h-291.6z"/></clipPath><g transform="translate(-335.8 -439.6)" clip-path="url(#a)"><g fill="#282e66"><path d="m698.6 635.8 56.3 69.2v-69.2h6.3v83.7h-2.5l-56.4-69.1v69.1h-6.5v-83.7z"/><path d="m775.5 690c0-17.7 13.4-30.5 30-30.5s31.4 10.2 29.2 33.2h-53.2c1.2 13.9 11.8 21.9 24 21.9 7.8 0 16.9-3.1 21.3-9l4.2 3.3c-5.7 7.5-16 11.4-25.5 11.4-16.6 0-30-11.5-30-30.3zm53.9-2.4c-.1-14.6-9.7-22.7-23.9-22.7-12.2 0-22.7 8.2-24 22.7z"/><path d="m860.8 642.7v17.8h20.1v4.9h-20.1v36c0 8 1.7 13.6 10.9 13.6 2.9 0 6.1-1 9.1-2.4l2 4.8c-3.7 1.8-7.4 3-11.1 3-12.6 0-16.6-7.4-16.6-19v-36h-12.6v-4.9h12.6v-17.2z"/><path d="m955.4 719.5h-6.5l-9.6-25.8-7.2-22.9-7.4 23.1-9.6 25.7h-6.5l-21-59h6.5l17.8 52.2 18-52.2h4.2l17.9 52.2 17.7-52.2h6.5z"/><path d="m983.2 690.1c0-18.8 13.4-30.7 30-30.7s30 12 30 30.7-13.4 30.2-30 30.2c-16.7 0-30-11.4-30-30.2zm54.2 0c0-15.3-10.9-25.2-24.3-25.2s-24.3 9.9-24.3 25.2 10.9 24.5 24.3 24.5 24.3-9.2 24.3-24.5z"/><path d="m1062.2 660.5.2 10.5c3.7-8 12.1-11.1 19.6-11.1 4.4-.1 8.7 1.1 12.7 3.5l-2.6 4.8c-3.1-1.9-6.6-2.7-10-2.7-11 .1-19.5 9-19.5 19.7v34.4h-5.9v-59h5.5z"/><path d="m1109.3 635.8v50.4l27.9-25.8h7.8v.2l-29.9 27.6 33.3 30.8v.4h-7.4l-31.7-28.9v28.9h-5.7v-83.7h5.7z"/><path d="m764.3 550.6c0 6.5-3.1 12.7-10.9 16.1 9.8 3 13.4 13.4 13.4 18.6 0 18.6-14 24.6-31.3 24.6h-39.7v-83.7h39.7c16.5 0.1 28.8 7.5 28.8 24.4zm-52.9 9.3h24.1c9.9 0 13.1-4.2 13.1-9 0-3.8-3.1-10.3-13.1-10.3h-24.1zm0 35.4h24.1c6.5 0 15.7-2.2 15.7-10 0-7.5-9.2-11.5-15.7-11.5h-24.1z"/><path d="m792.8 534.5c0 11.4-17.2 11.4-17.2 0s17.2-11.4 17.2 0zm-15.9 16.3v59.2h14.6v-59.2z"/><path d="m825.2 534.5v16.7h16.3v12.6h-16.4v25.5c0 5.6 3.1 8.4 7.6 8.4 2.3 0 4.9-.7 7.1-1.8l4.1 12.4c-4.2 1.7-7.6 2.4-12.1 2.5-12.8.5-21.2-6.8-21.2-21.5v-25.5h-11v-12.6h11v-15.2z"/><path d="m926.3 549.4-27.3 36.3h-3l-26.7-36.5v60.8h-15.8v-83.7h18.2l26.2 36 26.2-36h18v83.7h-15.8z"/><path d="m1003.8 551.1h14v58.9h-13.7l-.7-8.6c-3.3 6.9-12.6 10.3-19.1 10.4-17.5.1-30.4-10.6-30.4-31.3 0-20.3 13.5-31 30.7-30.8 7.9 0 15.4 3.7 18.8 9.6zm-35.4 29.4c0 11.2 7.8 17.9 17.5 17.9 22.9 0 22.9-35.7 0-35.7-9.7 0-17.5 6.5-17.5 17.8z"/><path d="m1043.6 551.1 1.1 6.8c4.5-7.3 10.6-8.4 16.6-8.4 6.1 0 12 2.4 15.2 5.6l-6.6 12.7c-3-2.5-5.7-3.8-10.5-3.8-7.6 0-14.7 4.1-14.7 14.9v31.1h-14.6v-58.9z"/><path d="m1096.2 526.4v48.3l19.8-23.7h17.4v.8l-24 26.9 27.4 30.1v1.1h-17.6l-23.1-26.7v26.8h-14.6v-83.5h14.7z"/><path d="m1156 585.7c1 7.3 7.3 12.6 17.6 12.6 5.4 0 12.4-2 15.8-5.5l9.3 9.2c-6.2 6.5-16.4 9.6-25.3 9.6-20.3 0-32.4-12.6-32.4-31.4 0-17.9 12.2-30.8 31.3-30.8 19.7 0 32 12.2 29.8 36.5h-46.1zm32.1-12c-1-7.6-6.9-11.5-15.3-11.5-7.9 0-14.3 3.8-16.5 11.5z"/><path d="m1231.4 534.5v16.7h16.3v12.6h-16.4v25.5c0 5.6 3.1 8.4 7.6 8.4 2.3 0 4.9-.7 7.1-1.8l4.1 12.4c-4.2 1.7-7.6 2.4-12.1 2.5-12.8.5-21.2-6.8-21.2-21.5v-25.5h-11v-12.6h11v-15.2z"/></g><g fill="#2261ef"><path d="m590.2 597.2c-15.7 0-29.6 4.9-40.4 22-6.8-16.6-21.3-22.5-35.7-22.5-11.5 0-25.4 4.4-31.8 16.6v-21.3c0-36.5-29.6-66.1-66.1-66.1-9.4 0-18.3 2-26.4 5.5v36.1c6.6-7.1 16-11.5 26.4-11.5 19.9 0 36.1 16.1 36.1 36.1v127.6h30.1v-64.7c0-15.9 9.5-30.3 25.7-30.3 16.4 0 24.7 14.4 24.7 30.3v64.6h29.9v-64.6c0-15.9 10-29.9 26.2-29.9s22.8 13.5 22.8 29.4v65.1h29.9v-65.1c-.3-36.2-17.1-57.3-51.4-57.3z"/><path d="m380.1 592v-55.4c-.1 0-.1.1-.2.1v-57.1h-29.9v112.4c0 36.5 29.6 66.1 66.1 66.1 9.4 0 18.3-2 26.4-5.5v-36.1c-6.6 7.1-16 11.5-26.4 11.5-19.9.1-36-16-36-36z"/></g></g></svg>
